<svg width="24" height="31" viewBox="0 0 24 31" fill="none" xmlns="http://www.w3.org/2000/svg">
<g clip-path="url(#clip0_1096_1718)">
<path d="M11.8599 1.14746C12.1097 1.46542 12.342 1.78429 12.5985 2.08279C13.2208 2.80625 14.0111 3.28289 14.8948 3.62212C15.6024 3.89388 16.3149 4.15682 17.0071 4.46444C17.9166 4.86873 18.6941 5.47972 19.462 6.1059C20.062 6.59439 20.6739 7.07103 21.3077 7.51453C21.6561 7.75771 22.0604 7.92185 22.4434 8.12248C22.1288 8.42243 21.7241 8.61017 21.2919 8.65656C20.6183 8.73772 20 8.54439 19.3985 8.27294C19.1708 8.1699 19.0726 8.14163 18.8841 8.36262C18.8121 8.4409 18.7311 8.51039 18.6428 8.56962C18.4093 8.73924 18.1543 8.77298 17.9008 8.63224C17.6908 8.51154 17.4878 8.37899 17.2928 8.23525C16.9922 8.02064 16.7068 7.78354 16.4004 7.57806C15.3954 6.90384 14.3406 6.87344 13.2785 7.41117C12.8253 7.64068 12.4104 7.94617 11.9845 8.22704C11.8973 8.2848 11.8483 8.2927 11.765 8.22704C11.2683 7.83036 10.7373 7.48869 10.1403 7.26101C9.11376 6.8701 8.15229 7.00993 7.25951 7.63551C6.93608 7.86197 6.6312 8.11427 6.31141 8.3459C6.16033 8.45618 6.00099 8.55465 5.83478 8.64045C5.59434 8.76204 5.34842 8.74715 5.13199 8.58543C4.98812 8.47456 4.85315 8.35259 4.72831 8.22066C4.66356 8.15409 4.61614 8.14771 4.53498 8.18753C4.10698 8.39818 3.6647 8.56962 3.18959 8.64349C2.47616 8.75353 1.83355 8.61309 1.27637 8.1015C1.32835 8.07992 1.36756 8.06229 1.40708 8.04739C2.09467 7.79327 2.69502 7.39111 3.26497 6.94092C3.90758 6.42994 4.53681 5.90103 5.18488 5.40007C6.14179 4.66172 7.23975 4.19664 8.37145 3.80025C9.12805 3.53549 9.86093 3.2227 10.4935 2.71111C10.9984 2.30196 11.4109 1.81195 11.7735 1.27695C11.8039 1.23197 11.834 1.18637 11.8599 1.14746ZM10.5494 5.16996C10.5494 5.90224 11.1574 6.50746 11.8869 6.50016C12.1506 6.49938 12.4082 6.42042 12.6271 6.27327C12.8459 6.12611 13.0162 5.91737 13.1165 5.67344C13.2167 5.4295 13.2423 5.16133 13.1902 4.90281C13.138 4.6443 13.0103 4.40707 12.8233 4.2211C12.6364 4.03513 12.3984 3.90878 12.1396 3.85802C11.8808 3.80726 11.6128 3.83438 11.3694 3.93594C11.126 4.0375 10.9182 4.20894 10.7723 4.42859C10.6263 4.64825 10.5488 4.90624 10.5494 5.16996ZM14.4434 5.48428C14.4434 5.66666 14.5619 5.81865 14.7665 5.8992C15.1379 6.04481 15.5127 6.18342 15.8799 6.33905C16.525 6.61263 17.1262 6.96463 17.702 7.36284C17.8157 7.44283 17.95 7.48832 18.0889 7.49386C18.261 7.49386 18.3856 7.37014 18.4318 7.19687C18.4808 7.01206 18.4279 6.85095 18.2704 6.74091C17.9968 6.55123 17.7187 6.36428 17.4345 6.1895C16.677 5.72411 15.8578 5.39095 15.0227 5.09519C14.7282 4.99336 14.4437 5.19216 14.4434 5.48428ZM9.27365 5.47972C9.26909 5.17422 8.96968 4.9815 8.66084 5.10765C8.04346 5.35873 7.41971 5.59979 6.82422 5.89799C6.35123 6.13387 5.91503 6.44514 5.46667 6.72784C5.31468 6.8245 5.23929 6.97406 5.27486 7.15796C5.31042 7.34187 5.43049 7.48474 5.61774 7.49233C5.75646 7.49207 5.89184 7.44967 6.00592 7.37074C6.64001 6.92846 7.30663 6.55001 8.02279 6.25972C8.33194 6.13478 8.64412 6.01654 8.95478 5.89677C9.15723 5.81956 9.27639 5.66332 9.27365 5.47972Z" fill="#545458"/>
<path d="M11.8954 29.8384C11.5722 29.4497 11.2759 29.0572 10.9418 28.6997C10.3232 28.0377 9.53591 27.6395 8.70089 27.3173C7.95645 27.03 7.21141 26.7421 6.48704 26.4053C5.64989 26.0175 4.93859 25.4326 4.23337 24.8447C3.55246 24.2775 2.87916 23.6987 2.09368 23.275C1.83683 23.1364 1.56629 23.0221 1.28906 22.8908C1.56075 22.6305 1.89994 22.4514 2.26817 22.374C2.89314 22.2409 3.48407 22.3819 4.06162 22.6047C4.21727 22.6641 4.3695 22.7321 4.51758 22.8084C4.60878 22.8555 4.6641 22.8525 4.73584 22.7713C4.83991 22.6539 4.95425 22.5459 5.07751 22.4488C5.32403 22.2546 5.59821 22.2239 5.87179 22.3795C6.08214 22.4993 6.27973 22.6421 6.47762 22.7823C6.8202 23.0254 7.14636 23.296 7.50141 23.5161C8.45893 24.1073 9.45657 24.0915 10.4405 23.6024C10.8995 23.3741 11.3187 23.065 11.7476 22.7817C11.8443 22.7178 11.8978 22.7075 11.9908 22.7817C12.5246 23.2072 13.0949 23.5677 13.7469 23.7875C14.6497 24.0915 15.5054 23.9878 16.3039 23.4772C16.6441 23.2595 16.9584 23.0011 17.287 22.7646C17.4593 22.6406 17.6317 22.5151 17.8132 22.4059C18.1208 22.2208 18.4211 22.2461 18.7002 22.4734C18.7819 22.5413 18.8602 22.6133 18.9345 22.6892C19.0683 22.823 19.1473 22.8412 19.3248 22.7582C19.7157 22.5759 20.1185 22.4272 20.5462 22.3588C21.1946 22.2558 21.7958 22.3603 22.3235 22.7744C22.3704 22.8111 22.4129 22.8534 22.4725 22.9063C21.7004 23.171 21.0514 23.6079 20.4331 24.0939C20.0379 24.4037 19.6458 24.7162 19.2671 25.0438C18.1642 25.998 16.9043 26.6628 15.5333 27.144C14.9657 27.3421 14.4137 27.5826 13.8821 27.8635C13.0733 28.2936 12.4772 28.9648 11.9717 29.7178C11.9449 29.7655 11.9139 29.8111 11.8954 29.8384ZM10.5497 25.8311C10.55 26.0935 10.628 26.3499 10.7738 26.568C10.9197 26.7861 11.1268 26.9562 11.3692 27.0567C11.6116 27.1572 11.8783 27.1836 12.1357 27.1327C12.3931 27.0819 12.6296 26.9559 12.8155 26.7707C13.0014 26.5855 13.1283 26.3495 13.1802 26.0923C13.2321 25.8351 13.2066 25.5683 13.1071 25.3255C13.0075 25.0828 12.8383 24.8749 12.6207 24.7283C12.4032 24.5816 12.1471 24.5026 11.8847 24.5012C11.5316 24.5014 11.1929 24.6414 10.9427 24.8906C10.6925 25.1398 10.5512 25.478 10.5497 25.8311ZM14.9026 25.9327C14.9418 25.9266 14.9805 25.9177 15.0184 25.9059C15.885 25.5928 16.7362 25.246 17.5223 24.7584C17.7715 24.6037 18.0156 24.4401 18.2554 24.272C18.4631 24.1258 18.5083 23.8827 18.3789 23.6851C18.2494 23.4875 18.0117 23.4419 17.7925 23.5729C17.7317 23.6091 17.673 23.6492 17.6153 23.6902C16.9562 24.1584 16.2437 24.5265 15.4938 24.8244C15.2202 24.9326 14.9445 25.0292 14.677 25.1472C14.5905 25.1861 14.5208 25.2549 14.4808 25.341C14.4408 25.427 14.4331 25.5246 14.4591 25.6159C14.5123 25.8102 14.6731 25.9342 14.9026 25.9327ZM8.78752 25.9327C9.03374 25.9366 9.20184 25.8147 9.25382 25.6354C9.28164 25.5451 9.27742 25.448 9.24185 25.3604C9.20629 25.2729 9.14158 25.2004 9.05867 25.1551C8.99554 25.1233 8.93081 25.0948 8.86473 25.0697C8.28992 24.8219 7.70385 24.5967 7.14363 24.3189C6.73812 24.1179 6.37062 23.8407 5.97788 23.6112C5.87149 23.5504 5.73257 23.5024 5.61311 23.5112C5.42525 23.5252 5.3067 23.6632 5.27387 23.8498C5.24104 24.0365 5.33163 24.1772 5.48301 24.2879C6.38916 24.9499 7.38924 25.4287 8.43886 25.8114C8.57109 25.8588 8.70454 25.9032 8.78722 25.9318L8.78752 25.9327Z" fill="#545458"/>
<path d="M4.0182 21.9523C3.56224 21.8112 3.13971 21.7207 2.70077 21.7283C2.68566 21.726 2.67029 21.726 2.65518 21.7283C2.41686 21.807 2.3126 21.6653 2.20408 21.483C1.4408 20.1971 0.929207 18.8192 0.721288 17.3395C0.319028 14.4783 0.906207 11.8337 2.48282 9.40572C2.54362 9.31209 2.60441 9.26862 2.72388 9.27045C3.23091 9.27805 3.71666 9.16254 4.18904 8.98532C4.25378 8.961 4.31853 8.9376 4.42067 8.8999C2.78498 10.7706 1.90193 12.9075 1.82897 15.3576C1.75572 17.8018 2.50045 19.9868 4.0182 21.9523Z" fill="#545458"/>
<path d="M19.3936 8.96729C19.8091 9.06 20.2505 9.1594 20.6924 9.25576C20.7511 9.27229 20.8124 9.27725 20.873 9.27035C21.1229 9.22141 21.2475 9.35485 21.3712 9.55092C22.2558 10.9535 22.8303 12.4691 23.0489 14.1136C23.4045 16.8023 22.876 19.3051 21.4633 21.6218C21.4025 21.7221 21.3439 21.7494 21.2238 21.7385C20.7484 21.6941 20.2866 21.7826 19.8334 21.9209L19.7422 21.9482C21.2569 19.9891 22.002 17.8014 21.9278 15.355C21.8536 12.9086 20.9721 10.7738 19.3936 8.96729Z" fill="#545458"/>
</g>
<defs>
<clipPath id="clip0_1096_1718">
<rect width="23.7548" height="31" fill="white"/>
</clipPath>
</defs>
</svg>
